# xmcd CD database file
#
# Track frame offsets:
#	150
#	18407
#	40162
#	55725
#
# Disc length: 865 seconds
#
# Revision: 0
# Processed by: cddbd v1.5.1PL2 Copyright (c) Steve Scherf et al.
# Submitted via: CDex 1.51
#
DISCID=28035f04
DTITLE=OZWORLD - 再会 〜Temperance??
DYEAR=2000
DGENRE=JPop
TTITLE0=再会 〜Temperance??
TTITLE1=侵略 〜the Chariots?
TTITLE2=rEmotE
TTITLE3=in my head
EXTD=YEAR: 2000
EXTT0=
EXTT1=
EXTT2=
EXTT3=
PLAYORDER=
